v -0.5 -0.5 -0.5
v 0.5 -0.5 -0.5
v 0.5 0.5 -0.5
v 0 0.5 -0.5
v 0 0 -0.5
v -0.5 0 -0.5
v -0.5 -0.4 -0.5
v 0.39999999999999997 -0.39999999999999997 -0.5
v 0.39999999999999997 0.39999999999999997 -0.5
v 0.10000000000000005 0.39999999999999997 -0.5
v 0.1 -0.09999999999999999 -0.5
v -0.5 -0.09999999999999998 -0.5
v -0.5 -0.5 0.5
v 0.5 -0.5 0.5
v 0.5 0.5 0.5
v 0 0.5 0.5
v 0 0 0.5
v -0.5 0 0.5
v -0.5 -0.4 0.5
v 0.39999999999999997 -0.39999999999999997 0.5
v 0.39999999999999997 0.39999999999999997 0.5
v 0.10000000000000005 0.39999999999999997 0.5
v 0.1 -0.09999999999999999 0.5
v -0.5 -0.09999999999999998 0.5
vn 0 -1 0
vn -6.167905692361981e-17 1 0
vn 1 0 0
vn -0.9999999999999999 0 0
vn 0 1 0
vn 0 -1 0
vn -1 0 0
vn 1 -8.326672684688677e-17 0
vn 0 1 0
vn -2.312964634635743e-17 -1 0
vn -1 0 0
vn -1 0 0
vn 0 0 -1
vn 0 0 1
vn 0 0 -1
vn 3.08395284618099e-16 0 1
vn 0 0 -1
vn 0 0 1
vn 0 0 -1
vn 0 0 1
vn 0 0 -1
vn 0 0 1
f 1//1 2//1 14//1 13//1 
f 7//2 19//2 20//2 8//2 
f 2//3 3//3 15//3 14//3 
f 8//4 20//4 21//4 9//4 
f 3//5 4//5 16//5 15//5 
f 9//6 21//6 22//6 10//6 
f 4//7 5//7 17//7 16//7 
f 10//8 22//8 23//8 11//8 
f 5//9 6//9 18//9 17//9 
f 11//10 23//10 24//10 12//10 
f 1//11 13//11 19//11 7//11 
f 6//12 12//12 24//12 18//12 
f 1//13 7//13 8//13 2//13 
f 13//14 14//14 20//14 19//14 
f 2//15 8//15 9//15 3//15 
f 14//16 15//16 21//16 20//16 
f 3//17 9//17 10//17 4//17 
f 15//18 16//18 22//18 21//18 
f 4//19 10//19 11//19 5//19 
f 16//20 17//20 23//20 22//20 
f 5//21 11//21 12//21 6//21 
f 17//22 18//22 24//22 23//22 
