<svg xmlns="http://www.w3.org/2000/svg" width="0" height="0">

	<svg id="icon-previous" viewBox="0 0 13 13">
		<style type="text/css">
			.st0{fill:#333;}
		</style>
		<polygon class="st0" points="9.2,1.6 8.5,0.8 3.5,5.8 3.5,5.8 2.8,6.5 3.5,7.2 8.5,12.2 9.2,11.4 4.2,6.5 "/>
	</svg>

	<svg id="icon-next" viewBox="0 0 13 13">
		<style type="text/css">
			.st0{fill:#333;}
		</style>
		<polygon class="st0" points="2.8,11.4 3.5,12.2 8.5,7.2 8.5,7.2 9.2,6.5 8.5,5.8 3.5,0.8 2.8,1.6 7.8,6.5 "/>
	</svg>

	<svg id="icon-opacity" viewBox="0 0 13 13">
		<path d="M3.1,7.6h6.8c0-1-0.3-1.8-1-2.5L6.5,2.7L4.1,5.1C3.4,5.8,3.1,6.7,3.1,7.6z M9.7,4.2c0.9,0.9,1.3,2,1.3,3.2
			c0,1.3-0.4,2.3-1.3,3.2c-0.4,0.4-0.9,0.7-1.5,0.9S7,12,6.5,12s-1.1-0.1-1.7-0.4S3.6,11,3.3,10.7c-0.9-0.9-1.3-2-1.3-3.2
			c0-0.5,0.1-1.1,0.4-1.7s0.6-1.1,0.9-1.5L6.5,1L9.7,4.2z"/>
	</svg>

	<svg id="icon-light" viewBox="0 0 13 13">
		<path d="M8.1,4.2c0,0.1-0.1,0.2-0.2,0.2S7.6,4.3,7.6,4.2c0-0.5-0.8-0.7-1.1-0.7c-0.1,0-0.2-0.1-0.2-0.2s0.1-0.2,0.2-0.2
			C7.2,3.1,8.1,3.4,8.1,4.2z M9.3,4.2c0-1.4-1.5-2.3-2.8-2.3S3.7,2.8,3.7,4.2c0,0.5,0.2,0.9,0.5,1.3C4.4,5.7,4.5,5.8,4.7,6
			c0.5,0.6,0.9,1.3,1,2.1h1.6c0.1-0.8,0.5-1.5,1-2.1c0.1-0.2,0.3-0.3,0.4-0.5C9.1,5.1,9.3,4.7,9.3,4.2z M10.2,4.2
			c0,0.7-0.2,1.4-0.7,1.9C8.9,6.7,8.3,7.4,8.2,8.2c0.2,0.1,0.3,0.3,0.3,0.6c0,0.2-0.1,0.3-0.2,0.5c0.1,0.1,0.2,0.3,0.2,0.5
			c0,0.2-0.1,0.5-0.3,0.6c0.1,0.1,0.1,0.2,0.1,0.3c0,0.5-0.4,0.7-0.8,0.7C7.4,11.7,7,12,6.5,12s-0.9-0.3-1.1-0.7
			c-0.4,0-0.8-0.2-0.8-0.7c0-0.1,0-0.2,0.1-0.3c-0.2-0.1-0.3-0.3-0.3-0.6c0-0.2,0.1-0.3,0.2-0.5C4.5,9.1,4.4,9,4.4,8.8
			c0-0.2,0.1-0.5,0.3-0.6C4.7,7.4,4.1,6.7,3.6,6.1S2.8,4.9,2.8,4.2C2.8,2.3,4.7,1,6.5,1S10.2,2.3,10.2,4.2z"/>
	</svg>

	<svg id="icon-line-thickness" viewBox="0 0 13 13">
		<path d="M11.1,8.4H1.9C1.6,8.4,1.3,8.7,1.3,9v1.3c0,0.4,0.3,0.7,0.7,0.7l0,0h9.1c0.4,0,0.7-0.3,0.7-0.7l0,0V9
			C11.7,8.7,11.4,8.4,11.1,8.4z M11.1,4.9H1.9c-0.4,0-0.7,0.3-0.7,0.7v0.7c0,0.4,0.3,0.7,0.7,0.7h9.1c0.4,0,0.7-0.3,0.7-0.7l0,0V5.5
			C11.7,5.2,11.4,4.9,11.1,4.9z M11.1,2H1.9C1.6,2,1.3,2.3,1.3,2.7c0,0.3,0.3,0.6,0.6,0.6h9.1c0.4,0,0.6-0.3,0.6-0.7
			C11.7,2.3,11.4,2,11.1,2z"/>
	</svg>

	<svg id="icon-line-color" viewBox="0 0 13 13">
		<path d="M8.6,1.4C8.1,1.2,7.6,1.1,7,1v3.5c0.1,0,0.2,0.1,0.3,0.1c0.1,0,0.2,0.1,0.3,0.1L10,2.2C9.6,1.9,9.1,1.6,8.6,1.4z M7,8.5V12
			c0.6-0.1,1.1-0.2,1.6-0.4c0.5-0.2,1-0.5,1.4-0.9L7.6,8.3c-0.1,0-0.2,0.1-0.3,0.1C7.2,8.5,7.1,8.5,7,8.5z M5.4,8.3L3,10.8
			c0.4,0.3,0.9,0.6,1.4,0.9c0.5,0.2,1,0.3,1.6,0.4V8.5c-0.1,0-0.2-0.1-0.3-0.1C5.6,8.4,5.5,8.3,5.4,8.3z M4.5,7H1
			c0.1,0.6,0.2,1.1,0.4,1.6c0.2,0.5,0.5,1,0.9,1.4l2.5-2.5c0-0.1-0.1-0.2-0.1-0.3C4.5,7.2,4.5,7.1,4.5,7z M4.7,5.4L2.2,3
			C1.9,3.4,1.6,3.9,1.4,4.4C1.2,4.9,1.1,5.4,1,6h3.5c0-0.1,0.1-0.2,0.1-0.3S4.7,5.5,4.7,5.4L4.7,5.4z M12,7H8.5
			c0,0.1-0.1,0.2-0.1,0.3c0,0.1-0.1,0.2-0.1,0.3l2.5,2.5c0.3-0.4,0.6-0.9,0.9-1.4l0,0C11.8,8.1,11.9,7.6,12,7L12,7z M10.8,3L8.3,5.4
			c0,0.1,0.1,0.2,0.1,0.3c0,0.1,0.1,0.2,0.1,0.3H12c-0.1-0.6-0.2-1.1-0.4-1.6l0,0C11.4,3.9,11.1,3.4,10.8,3L10.8,3z M6,4.5V1
			C5.4,1.1,4.9,1.2,4.4,1.4C3.9,1.6,3.4,1.9,3,2.2l2.5,2.5c0.1,0,0.2-0.1,0.3-0.1C5.8,4.5,5.9,4.5,6,4.5z"/>
	</svg>

</svg>