<svg xmlns="http://www.w3.org/2000/svg" width="0" height="0">

	<svg id="icon-previous" viewBox="0 0 500 500">
		<style type="text/css">
			.st0{fill:none;stroke:#333;stroke-width:80;stroke-linecap:round;stroke-linejoin:round;}
		</style>
		<polyline class="st0" points="339.2,428.4 160.8,250 339.2,71.6 "/>
	</svg>

	<svg id="icon-next" viewBox="0 0 500 500">
		<style type="text/css">
			.st0{fill:none;stroke:#333;stroke-width:80;stroke-linecap:round;stroke-linejoin:round;}
		</style>
		<polyline class="st0" points="160.8,71.6 339.2,250 160.8,428.4 "/>
	</svg>

	<svg id="icon-opacity" viewBox="0 0 500 500">
		<path d="M109.8,297.1h280.3c0-40.2-13.9-74.1-41.6-101.8L250,92.3l-98.6,101.8C123.7,221.9,109.8,256.2,109.8,297.1z M382.5,156.9
			c36.5,36.5,54.8,80.3,54.8,131.4c0,51.8-18.3,96-54.8,132.5c-15.3,15.3-36,28.3-61.9,38.9s-49.5,15.9-70.6,15.9s-44.7-5.3-70.6-15.9
			s-46.5-23.5-61.9-38.9C81,384.3,62.7,340.2,62.7,288.3c0-21.2,5.3-44.5,15.9-70.1s23.5-46,38.9-61.3L250,24.4L382.5,156.9z"/>
	</svg>

	<svg id="icon-light" viewBox="0 0 500 500">
		<path d="M316.9,154.4c0,5.1-4.5,9.6-9.6,9.6c-5.1,0-9.6-4.5-9.6-9.6c0-20.6-32-28.7-47.8-28.7c-5.1,0-9.6-4.5-9.6-9.6
			c0-5.1,4.5-9.6,9.6-9.6C277.8,106.5,316.9,121.2,316.9,154.4z M364.8,154.4c0-59.8-60.7-95.6-114.8-95.6s-114.8,35.9-114.8,95.6
			c0,19.1,7.8,39.2,20.3,53.8c5.7,6.6,12.3,12.9,18.2,19.7c21.2,25.4,39.2,55.3,42.1,89.1h68.1c3-33.8,20.9-63.7,42.1-89.1
			c6-6.9,12.6-13.2,18.2-19.7C357,193.5,364.8,173.5,364.8,154.4z M403,154.4c0,30.8-10.2,57.4-30.8,80.1
			c-20.6,22.7-47.8,54.7-50.2,86.7c8.7,5.1,14,14.6,14,24.5c0,7.2-2.7,14-7.5,19.1c4.8,5.1,7.5,12,7.5,19.1c0,9.9-5.1,18.8-13.4,24.2
			c2.4,4.2,3.9,9.3,3.9,14c0,19.4-15.2,28.7-32.6,28.7c-7.8,17.3-25.1,28.7-43.9,28.7s-36.2-11.4-43.9-28.7
			c-17.3,0-32.6-9.3-32.6-28.7c0-4.8,1.5-9.9,3.9-14c-8.4-5.4-13.4-14.3-13.4-24.2c0-7.2,2.7-14,7.5-19.1c-4.8-5.1-7.5-12-7.5-19.1
			c0-9.9,5.4-19.4,14-24.5c-2.4-32-29.6-64-50.2-86.7S97,185.1,97,154.4c0-81.3,77.4-133.9,153-133.9S403,73.1,403,154.4z"/>
	</svg>

	<svg id="icon-line-thickness" viewBox="0 0 500 500">
		<path class="st0" d="M435.8,326.4H64.2c-14.7,0-26.5,11.9-26.5,26.6V406c0,14.6,11.9,26.5,26.5,26.5c0,0,0,0,0,0h371.7
			c14.6,0,26.5-11.9,26.5-26.5v0v-53.1C462.4,338.3,450.5,326.4,435.8,326.4z M435.8,183.6H64.2c-14.7,0-26.5,11.9-26.5,26.6v26.6
			c0,14.6,11.9,26.5,26.5,26.5h371.7c14.6,0,26.5-11.9,26.5-26.5c0,0,0,0,0,0v-26.6C462.4,195.5,450.5,183.6,435.8,183.6z M435.8,67.4
			H64.2c-14.7,0.6-26,13-25.4,27.7c0.6,13.8,11.6,24.8,25.4,25.4h371.7c14.7-0.6,26-13,25.4-27.7C460.7,79.1,449.6,68,435.8,67.4z"/>
	</svg>

	<svg id="icon-line-color" viewBox="0 0 500 500">
		<path class="st0" d="M335.1,44.3C315,36,293.4,30.5,270.8,28.4v140c3.9,1,7.7,2.3,11.4,3.8c3.7,1.5,7.3,3.4,10.7,5.4l99-99
			C375,64.5,355.8,52.9,335.1,44.3z M270.8,331.6v140c22.6-2.1,44.2-7.6,64.3-15.9c20.7-8.6,39.8-20.2,56.8-34.3l-99-99
			c-3.4,2-7,3.8-10.7,5.4C278.6,329.3,274.7,330.6,270.8,331.6z M207,322.4l-99,99c17,14.1,36.1,25.7,56.8,34.3
			c20.1,8.3,41.7,13.8,64.3,15.9v-140c-3.9-1-7.7-2.3-11.4-3.8C214.1,326.3,210.5,324.5,207,322.4z M168.4,270.8h-140
			c2.1,22.6,7.6,44.2,15.9,64.3c8.6,20.7,20.2,39.8,34.3,56.8l99-99c-2-3.4-3.8-7-5.4-10.7C170.7,278.6,169.4,274.7,168.4,270.8z
			 M177.6,207l-99-99c-14.1,17-25.7,36.1-34.3,56.8C36,185,30.5,206.6,28.4,229.2h140c1-3.9,2.3-7.7,3.8-11.4
			C173.7,214.1,175.5,210.5,177.6,207L177.6,207z M471.6,270.8h-140c-1,3.9-2.3,7.7-3.8,11.4c-1.5,3.7-3.4,7.3-5.4,10.7l99,99
			c14.1-17,25.7-36.1,34.3-56.8l0,0C464.1,315,469.5,293.4,471.6,270.8L471.6,270.8z M421.4,108l-99,99c2,3.4,3.8,7,5.4,10.7
			c1.5,3.7,2.8,7.5,3.8,11.4h140c-2.1-22.6-7.6-44.2-15.9-64.3l-0.1-0.2C447.1,144,435.5,125,421.4,108L421.4,108z M229.2,168.4v-140
			c-22.6,2.1-44.2,7.6-64.3,15.9C144.2,52.9,125,64.5,108,78.6l99,99c3.4-2,7-3.8,10.7-5.4C221.5,170.7,225.3,169.4,229.2,168.4z"/>
	</svg>

</svg>